<?xml version="1.0" standalone="no"?>
<!DOCTYPE svg PUBLIC "-//W3C//DTD SVG 20010904//EN"
 "http://www.w3.org/TR/2001/REC-SVG-20010904/DTD/svg10.dtd">
<svg version="1.0" xmlns="http://www.w3.org/2000/svg"
 width="400.000000pt" height="400.000000pt" viewBox="0 0 400.000000 400.000000"
 preserveAspectRatio="xMidYMid meet">
<metadata>
Created by potrace 1.14, written by Peter Selinger 2001-2017
</metadata>
<g transform="translate(0.000000,400.000000) scale(0.100000,-0.100000)"
fill="#000000" stroke="none">
<path d="M1790 3724 c-107 -63 -202 -118 -210 -121 -8 -4 -66 -38 -128 -75
-62 -37 -114 -68 -116 -68 -2 0 -61 -34 -131 -75 -69 -41 -128 -75 -130 -75
-2 0 -50 -28 -107 -61 -57 -34 -121 -72 -143 -84 -22 -12 -55 -30 -72 -41
l-33 -19 0 -97 0 -96 50 -31 c28 -17 53 -31 56 -31 3 0 26 -13 51 -30 24 -16
46 -30 48 -30 2 0 38 -20 78 -45 41 -25 77 -45 80 -45 3 0 58 -31 122 -70 64
-38 118 -70 122 -70 3 0 53 -29 112 -63 58 -35 137 -81 176 -103 38 -21 90
-51 115 -66 25 -15 60 -34 78 -42 l32 -15 0 -545 c0 -301 -2 -546 -4 -546 -2
0 -61 34 -131 75 -69 41 -128 75 -131 75 -2 0 -21 11 -42 23 -20 13 -57 35
-82 49 -25 14 -137 78 -250 143 -113 65 -230 132 -260 148 -30 17 -90 52 -133
79 -43 26 -80 48 -83 48 -2 0 -4 -45 -4 -99 l0 -99 50 -31 c28 -17 53 -31 56
-31 4 0 50 -26 103 -58 53 -32 103 -61 111 -65 8 -4 33 -18 55 -30 22 -13 67
-38 100 -57 33 -18 104 -60 158 -92 55 -32 100 -58 102 -58 4 0 67 -37 347
-201 64 -38 119 -69 122 -69 4 0 24 -11 45 -25 22 -13 41 -21 43 -16 2 4 36
27 76 50 l72 43 0 643 0 643 58 33 c31 17 71 40 87 49 17 9 154 88 305 175
151 87 295 169 320 183 25 14 74 42 109 64 34 21 65 38 67 38 2 0 4 -285 4
-633 0 -349 3 -636 6 -640 3 -3 29 8 57 25 29 17 64 38 80 45 l27 15 -2 741
c-2 486 -6 742 -13 742 -5 1 -28 12 -50 26 -22 14 -54 33 -72 43 l-32 16 -98
-56 c-54 -31 -154 -89 -223 -129 -380 -219 -460 -265 -505 -290 -28 -16 -66
-38 -85 -50 -19 -12 -72 -43 -117 -68 l-82 -47 -98 56 c-54 31 -170 98 -258
149 -88 51 -176 101 -195 112 -234 132 -409 237 -403 243 4 4 82 50 173 102
91 52 224 129 297 171 72 42 147 85 167 96 19 11 53 31 75 45 22 15 43 26 45
26 2 0 51 28 108 61 56 34 130 76 163 94 32 18 60 36 62 41 2 7 -140 96 -149
93 -2 0 -91 -52 -198 -115z"/>
<path d="M900 765 l0 -65 320 0 320 0 0 65 0 65 -320 0 -320 0 0 -65z"/>
<path d="M1732 768 l3 -63 323 -3 322 -2 0 65 0 65 -325 0 -326 0 3 -62z"/>
<path d="M2550 765 l0 -65 320 0 320 0 0 65 0 65 -320 0 -320 0 0 -65z"/>
<path d="M904 566 c-3 -7 -4 -38 -2 -67 l3 -54 68 -3 67 -3 0 71 0 70 -65 0
c-46 0 -67 -4 -71 -14z"/>
<path d="M1734 567 c-3 -8 -4 -39 -2 -68 l3 -54 70 0 70 0 0 65 0 65 -68 3
c-51 2 -69 -1 -73 -11z"/>
<path d="M2554 566 c-3 -7 -4 -38 -2 -67 l3 -54 68 -3 67 -3 0 71 0 70 -65 0
c-46 0 -67 -4 -71 -14z"/>
<path d="M900 260 l0 -70 320 0 320 0 0 70 0 70 -320 0 -320 0 0 -70z"/>
<path d="M1730 260 l0 -70 325 0 326 0 -3 68 -3 67 -322 3 -323 2 0 -70z"/>
<path d="M2550 260 l0 -70 320 0 320 0 0 70 0 70 -320 0 -320 0 0 -70z"/>
</g>
</svg>
